<?xml version="1.0" encoding="UTF-8" standalone="no"?>
<!-- Created with Inkscape (http://www.inkscape.org/) -->

<svg
   xmlns:dc="http://purl.org/dc/elements/1.1/"
   xmlns:cc="http://creativecommons.org/ns#"
   xmlns:rdf="http://www.w3.org/1999/02/22-rdf-syntax-ns#"
   xmlns:svg="http://www.w3.org/2000/svg"
   xmlns="http://www.w3.org/2000/svg"
   xmlns:sodipodi="http://sodipodi.sourceforge.net/DTD/sodipodi-0.dtd"
   xmlns:inkscape="http://www.inkscape.org/namespaces/inkscape"
   width="47.586094"
   height="89.277496"
   id="svg8230"
   version="1.1"
   inkscape:version="0.48.4 r9939"
   sodipodi:docname="New document 43">
  <defs
     id="defs8232" />
  <sodipodi:namedview
     id="base"
     pagecolor="#ffffff"
     bordercolor="#666666"
     borderopacity="1.0"
     inkscape:pageopacity="0.0"
     inkscape:pageshadow="2"
     inkscape:zoom="0.35"
     inkscape:cx="23.79305"
     inkscape:cy="44.638747"
     inkscape:document-units="px"
     inkscape:current-layer="layer1"
     showgrid="false"
     fit-margin-top="0"
     fit-margin-left="0"
     fit-margin-right="0"
     fit-margin-bottom="0"
     inkscape:window-width="513"
     inkscape:window-height="370"
     inkscape:window-x="825"
     inkscape:window-y="237"
     inkscape:window-maximized="0" />
  <metadata
     id="metadata8235">
    <rdf:RDF>
      <cc:Work
         rdf:about="">
        <dc:format>image/svg+xml</dc:format>
        <dc:type
           rdf:resource="http://purl.org/dc/dcmitype/StillImage" />
        <dc:title></dc:title>
      </cc:Work>
    </rdf:RDF>
  </metadata>
  <g
     inkscape:label="Layer 1"
     inkscape:groupmode="layer"
     id="layer1"
     transform="translate(-351.20695,-487.72343)">
    <g
       style="display:inline"
       id="g680"
       transform="matrix(1.25,0,0,-1.25,397.94445,530.31343)">
      <path
         d="m 0,0 -33.394,33.393 c -0.451,0.453 -1.044,0.679 -1.638,0.679 -0.592,0 -1.186,-0.226 -1.638,-0.679 l -0.041,-0.041 c -0.435,-0.435 -0.679,-1.024 -0.679,-1.639 l 0,-16.207 c 0,-0.614 0.244,-1.204 0.679,-1.638 l 15.507,-15.506 -15.507,-15.507 c -0.435,-0.435 -0.679,-1.023 -0.679,-1.638 l 0,-16.209 c 0,-0.614 0.244,-1.204 0.679,-1.638 l 0.041,-0.041 c 0.435,-0.435 1.024,-0.679 1.638,-0.679 0.615,0 1.205,0.244 1.639,0.679 L 0.001,-3.277 C 0.905,-2.372 0.905,-0.905 0,0"
         style="fill:#373535;fill-opacity:1;fill-rule:nonzero;stroke:none"
         id="path682"
         inkscape:connector-curvature="0" />
    </g>
  </g>
</svg>
