<?xml version="1.0" encoding="UTF-8" standalone="no"?>
<!-- Created with Inkscape (http://www.inkscape.org/) -->

<svg
   xmlns:dc="http://purl.org/dc/elements/1.1/"
   xmlns:cc="http://creativecommons.org/ns#"
   xmlns:rdf="http://www.w3.org/1999/02/22-rdf-syntax-ns#"
   xmlns:svg="http://www.w3.org/2000/svg"
   xmlns="http://www.w3.org/2000/svg"
   xmlns:sodipodi="http://sodipodi.sourceforge.net/DTD/sodipodi-0.dtd"
   xmlns:inkscape="http://www.inkscape.org/namespaces/inkscape"
   width="90"
   height="90"
   id="svg4389"
   version="1.1"
   inkscape:version="0.48.4 r9939"
   sodipodi:docname="New document 5">
  <defs
     id="defs4391" />
  <sodipodi:namedview
     id="base"
     pagecolor="#ffffff"
     bordercolor="#666666"
     borderopacity="1.0"
     inkscape:pageopacity="0.0"
     inkscape:pageshadow="2"
     inkscape:zoom="0.35"
     inkscape:cx="-17.14286"
     inkscape:cy="-126.42857"
     inkscape:document-units="px"
     inkscape:current-layer="layer1"
     showgrid="false"
     fit-margin-top="0"
     fit-margin-left="0"
     fit-margin-right="0"
     fit-margin-bottom="0"
     inkscape:window-width="472"
     inkscape:window-height="347"
     inkscape:window-x="49"
     inkscape:window-y="24"
     inkscape:window-maximized="0" />
  <metadata
     id="metadata4394">
    <rdf:RDF>
      <cc:Work
         rdf:about="">
        <dc:format>image/svg+xml</dc:format>
        <dc:type
           rdf:resource="http://purl.org/dc/dcmitype/StillImage" />
        <dc:title></dc:title>
      </cc:Work>
    </rdf:RDF>
  </metadata>
  <g
     inkscape:label="Layer 1"
     inkscape:groupmode="layer"
     id="layer1"
     transform="translate(-392.14286,-315.93361)">
    <g
       id="g886"
       transform="matrix(1.25,0,0,-1.25,447.94036,317.23736)">
      <path
         d="m 0,0 -0.957,-3.885 c 4.347,-1.07 8.353,-3.01 11.908,-5.767 l 2.451,3.162 C 9.496,-3.463 4.948,-1.219 0,0 m 18.813,-11.664 -3.049,-2.59 c 2.914,-3.432 5.032,-7.348 6.298,-11.639 l 3.836,1.131 c -1.263,4.285 -3.302,8.239 -5.954,11.696 -0.002,0.002 -0.002,0.002 -0.003,0.003 -0.01,0.014 -0.021,0.028 -0.031,0.042 -0.003,0.003 -0.005,0.005 -0.008,0.009 -0.008,0.01 -0.017,0.022 -0.026,0.033 -0.003,0.004 -0.008,0.01 -0.011,0.014 -0.008,0.01 -0.015,0.022 -0.023,0.031 -0.004,0.006 -0.008,0.01 -0.012,0.016 -0.008,0.01 -0.015,0.02 -0.022,0.027 -0.005,0.008 -0.009,0.012 -0.014,0.02 -0.007,0.008 -0.014,0.016 -0.02,0.023 -0.004,0.008 -0.011,0.016 -0.016,0.022 -0.006,0.008 -0.012,0.015 -0.018,0.021 -0.005,0.008 -0.011,0.016 -0.017,0.024 -0.005,0.008 -0.011,0.013 -0.016,0.019 -0.006,0.01 -0.013,0.018 -0.019,0.026 -0.005,0.006 -0.009,0.011 -0.014,0.017 -0.007,0.01 -0.014,0.018 -0.022,0.028 -0.003,0.003 -0.006,0.009 -0.01,0.013 -0.009,0.012 -0.016,0.02 -0.025,0.032 -0.001,0.001 -0.002,0.001 -0.004,0.003 -0.261,0.332 -0.527,0.657 -0.8,0.979 m 8.439,-20.461 -3.987,-0.311 c 0.064,-0.834 0.097,-1.681 0.097,-2.521 0,-3.643 -0.605,-7.211 -1.799,-10.611 l 3.773,-1.327 c 0.972,2.766 1.614,5.682 1.884,8.709 l 0,0.004 c 0.002,0.018 0.003,0.037 0.005,0.055 0.006,0.076 0.012,0.15 0.019,0.227 l 0,0.004 c 0.001,0.015 0.003,0.035 0.004,0.052 l 0,0.004 c 0.007,0.074 0.012,0.151 0.018,0.225 l 0,0.004 c 0.002,0.017 0.003,0.037 0.004,0.052 l 0,0.004 c 0.001,0.018 0.002,0.035 0.003,0.053 l 0,0.004 c 0.005,0.059 0.008,0.113 0.012,0.17 l 0,0.004 c 0.002,0.015 0.003,0.033 0.004,0.051 l 0,0.007 c 0.002,0.018 0.003,0.034 0.004,0.051 l 0,0.004 c 0.001,0.02 0.002,0.035 0.003,0.055 l 0,0.002 c 0.003,0.037 0.005,0.074 0.007,0.111 0,0.004 0,0.008 10e-4,0.012 0.001,0.013 0.001,0.027 0.002,0.043 10e-4,0.004 10e-4,0.009 10e-4,0.013 0.001,0.014 0.002,0.028 0.002,0.041 10e-4,0.004 10e-4,0.01 10e-4,0.014 0.001,0.016 0.002,0.031 0.003,0.045 l 0,0.01 c 0,0.017 0.001,0.037 0.002,0.054 10e-4,0.018 0.002,0.038 0.003,0.055 l 0,0.012 c 10e-4,0.014 0.002,0.029 0.002,0.043 0.001,0.006 0.001,0.012 0.001,0.015 10e-4,0.014 10e-4,0.026 0.002,0.04 0,0.005 0.001,0.011 0.001,0.015 0,0.014 10e-4,0.027 0.002,0.041 l 0,0.014 c 0.002,0.037 0.004,0.072 0.005,0.111 l 0,0.006 c 0.001,0.016 0.002,0.031 0.002,0.047 0.001,0.006 0.001,0.01 0.001,0.016 0,0.011 0.001,0.025 0.002,0.037 l 0,0.019 c 0.001,0.012 0.001,0.027 0.002,0.039 l 0,0.014 c 10e-4,0.016 10e-4,0.029 0.002,0.045 l 0,0.01 c 0.001,0.019 0.002,0.039 0.002,0.056 l 0,0.002 c 0.001,0.018 0.001,0.035 0.002,0.051 l 0,0.018 c 10e-4,0.013 10e-4,0.023 0.002,0.037 l 0,0.017 c 0.001,0.014 0.001,0.026 0.001,0.037 10e-4,0.006 10e-4,0.012 10e-4,0.02 0,0.012 0.001,0.025 0.001,0.039 l 0,0.014 c 0.001,0.017 0.001,0.033 0.002,0.05 l 0,0.006 c 0,0.018 0.001,0.035 0.001,0.053 0,0.006 0,0.01 0.001,0.014 0,0.013 0,0.027 10e-4,0.041 l 0,0.017 c 0,0.012 0,0.026 0,0.037 l 0,0.018 c 0,0.014 0.001,0.025 0.001,0.037 l 0,0.018 c 0.001,0.015 0.001,0.031 0.001,0.046 l 0,0.008 c 10e-4,0.018 10e-4,0.037 10e-4,0.055 l 0,0.014 c 0.001,0.013 0.001,0.025 0.001,0.039 l 0,0.021 c 0,0.012 0.001,0.022 0.001,0.033 l 0,0.022 0,0.033 c 0,0.008 10e-4,0.014 10e-4,0.022 l 0,0.037 0,0.017 c 0,0.018 0.001,0.035 0.001,0.053 l 0,0.014 0,0.039 0,0.021 0,0.035 c 0,0.006 0,0.014 10e-4,0.02 l 0,0.033 0,0.024 0,0.035 0,0.017 0,0.055 0,0.053 0,0.015 0,0.037 0,0.018 c 0,0.016 0,0.027 -10e-4,0.043 l 0,0.01 0,0.051 0,0.019 0,0.033 0,0.022 c 0,0.01 -0.001,0.023 -0.001,0.035 l 0,0.017 0,0.049 c 0,0.006 -10e-4,0.014 -10e-4,0.02 l 0,0.031 0,0.025 c 0,0.008 -0.001,0.02 -0.001,0.028 l 0,0.025 0,0.026 c -0.001,0.017 -0.001,0.033 -0.001,0.048 0,0.008 0,0.016 -10e-4,0.022 l 0,0.031 c 0,0.006 0,0.012 -0.001,0.02 l 0,0.033 0,0.012 c -0.001,0.039 -0.001,0.08 -0.002,0.119 l 0,0.006 c -0.016,0.666 -0.049,1.328 -0.101,1.984 m -8.539,-19.453 c -2.302,-3.779 -5.44,-7.117 -9.073,-9.651 l 2.287,-3.281 c 0.681,0.477 1.348,0.977 1.995,1.496 0.002,0.002 0.005,0.004 0.007,0.006 0.012,0.01 0.023,0.02 0.036,0.029 0.002,0.002 0.004,0.002 0.006,0.004 0.012,0.01 0.024,0.02 0.036,0.03 0.003,0.002 0.005,0.004 0.007,0.006 0.012,0.009 0.023,0.019 0.035,0.029 l 0.009,0.006 c 0.01,0.009 0.022,0.019 0.034,0.027 0.003,0.004 0.006,0.006 0.009,0.008 0.011,0.01 0.022,0.019 0.035,0.029 l 0.003,0.002 c 0.013,0.012 0.026,0.022 0.039,0.033 0.054,0.043 0.108,0.088 0.162,0.133 0.002,0.002 0.004,0.002 0.006,0.004 0.01,0.01 0.021,0.018 0.032,0.027 0.003,0.004 0.007,0.006 0.01,0.01 0.009,0.008 0.02,0.016 0.029,0.024 l 0.015,0.011 c 0.009,0.008 0.018,0.016 0.028,0.024 0.005,0.004 0.01,0.008 0.014,0.011 0.009,0.008 0.019,0.016 0.028,0.024 0.005,0.004 0.01,0.01 0.015,0.014 0.01,0.007 0.018,0.015 0.029,0.023 0.004,0.004 0.009,0.008 0.014,0.012 l 0.026,0.023 c 0.006,0.004 0.012,0.01 0.018,0.014 l 0.026,0.023 c 0.005,0.004 0.009,0.008 0.014,0.012 l 0.029,0.023 c 0.004,0.004 0.008,0.008 0.012,0.01 0.01,0.01 0.019,0.018 0.031,0.028 0.003,10e-4 0.006,0.005 0.009,0.007 0.011,0.01 0.021,0.018 0.032,0.028 0.003,0.002 0.006,0.004 0.009,0.007 0.021,0.018 0.044,0.038 0.066,0.057 0.003,0.002 0.005,0.004 0.008,0.006 0.009,0.008 0.017,0.016 0.025,0.023 0.006,0.004 0.012,0.01 0.017,0.014 0.007,0.006 0.015,0.014 0.022,0.02 0.008,0.005 0.015,0.011 0.022,0.019 0.007,0.006 0.013,0.01 0.02,0.016 0.007,0.008 0.015,0.013 0.022,0.019 l 0.02,0.018 c 0.008,0.008 0.016,0.014 0.023,0.019 0.007,0.006 0.014,0.014 0.021,0.02 l 0.021,0.018 c 0.007,0.005 0.014,0.011 0.021,0.019 0.007,0.006 0.015,0.012 0.023,0.02 0.006,0.004 0.012,0.011 0.018,0.015 0.008,0.008 0.017,0.014 0.025,0.022 0.006,0.006 0.012,0.011 0.018,0.015 0.008,0.008 0.016,0.016 0.024,0.022 0.006,0.006 0.012,0.012 0.018,0.017 0.009,0.006 0.018,0.014 0.026,0.022 0.004,0.004 0.011,0.01 0.016,0.014 0.012,0.011 0.023,0.021 0.034,0.031 0.003,0.002 0.005,0.004 0.007,0.006 0.03,0.025 0.058,0.05 0.086,0.078 0.002,0 0.005,0.004 0.005,0.004 0.014,0.011 0.025,0.021 0.037,0.033 0.004,0.002 0.009,0.008 0.013,0.01 0.01,0.009 0.019,0.019 0.03,0.027 0.003,0.004 0.009,0.008 0.012,0.012 0.01,0.009 0.02,0.017 0.03,0.027 0.005,0.004 0.009,0.008 0.014,0.012 0.01,0.01 0.019,0.017 0.029,0.027 0.004,0.004 0.008,0.006 0.012,0.01 0.01,0.01 0.019,0.019 0.03,0.027 0.005,0.006 0.009,0.008 0.014,0.014 0.009,0.008 0.018,0.017 0.028,0.025 0.005,0.004 0.009,0.008 0.013,0.012 0.01,0.01 0.02,0.018 0.031,0.027 0.003,0.004 0.007,0.008 0.011,0.01 0.01,0.012 0.023,0.022 0.034,0.033 0.003,0.002 0.004,0.004 0.007,0.006 0.012,0.012 0.024,0.022 0.037,0.033 0.002,0.002 0.003,0.004 0.005,0.006 0.056,0.051 0.113,0.104 0.169,0.157 0.003,10e-4 0.005,0.003 0.007,0.005 0.011,0.012 0.024,0.024 0.036,0.034 0.002,0.003 0.004,0.003 0.006,0.007 0.011,0.01 0.023,0.022 0.035,0.032 0.003,0.004 0.006,0.005 0.009,0.009 0.011,0.01 0.022,0.02 0.033,0.032 0.004,0.002 0.006,0.004 0.008,0.007 l 0.033,0.03 c 0.003,0.004 0.007,0.008 0.01,0.01 0.011,0.011 0.022,0.021 0.033,0.031 0.004,0.004 0.005,0.004 0.007,0.008 0.012,0.011 0.024,0.021 0.036,0.033 0.002,0.002 0.005,0.004 0.005,0.006 0.013,0.011 0.025,0.023 0.038,0.035 0.002,0.002 0.003,0.004 0.004,0.004 0.013,0.013 0.026,0.025 0.039,0.037 l 0.003,0.004 c 0.056,0.052 0.112,0.107 0.167,0.162 l 0.002,0 c 0.013,0.014 0.027,0.027 0.04,0.039 l 10e-4,0.002 c 0.014,0.014 0.028,0.025 0.04,0.039 0,0 0.003,0.002 0.004,0.004 0.012,0.012 0.025,0.023 0.037,0.035 0.001,0.002 0.004,0.004 0.005,0.006 l 0.036,0.035 c 0.001,0.002 0.004,0.004 0.007,0.006 l 0.035,0.035 c 0.002,0.002 0.003,0.002 0.004,0.004 0.013,0.014 0.026,0.025 0.038,0.037 l 0.002,0.004 c 0.098,0.096 0.195,0.191 0.289,0.289 l 0.001,0 c 0.013,0.014 0.026,0.027 0.04,0.039 0.001,0.002 0.002,0.004 0.003,0.006 0.013,0.012 0.025,0.023 0.037,0.037 0.002,0 0.003,0.002 0.004,0.004 l 0.036,0.035 c 0.002,0.002 0.004,0.006 0.005,0.008 l 0.036,0.035 c 0.002,0.002 0.004,0.004 0.005,0.006 0.012,0.012 0.023,0.023 0.036,0.035 0.002,0.002 0.002,0.004 0.005,0.006 0.012,0.012 0.024,0.025 0.037,0.037 0.001,0.002 0.001,0.002 0.003,0.004 0.081,0.084 0.161,0.168 0.241,0.252 0,0 0.001,0 0.002,0.002 0.012,0.012 0.024,0.025 0.037,0.039 10e-4,0.002 0.004,0.004 0.006,0.006 0.01,0.011 0.022,0.023 0.033,0.035 0.002,0.002 0.005,0.006 0.007,0.008 0.01,0.011 0.021,0.021 0.032,0.033 0.003,0.004 0.005,0.006 0.009,0.01 0.01,0.009 0.02,0.021 0.031,0.033 0.002,0.002 0.005,0.006 0.007,0.008 0.011,0.011 0.022,0.023 0.033,0.035 l 0.006,0.006 c 0.013,0.013 0.024,0.025 0.036,0.039 0.002,0.002 10e-4,0.002 0.003,0.002 0.012,0.013 0.024,0.027 0.037,0.041 l 0.001,0.002 c 0.054,0.056 0.106,0.115 0.159,0.172 l 0.001,0.002 c 0.014,0.013 0.026,0.027 0.038,0.041 0,0 0.003,0.002 0.003,0.003 0.012,0.012 0.024,0.026 0.035,0.038 10e-4,0.002 0.004,0.003 0.006,0.005 0.011,0.014 0.023,0.026 0.033,0.038 l 0.006,0.005 c 0.01,0.012 0.021,0.024 0.032,0.036 0.002,0.003 0.005,0.005 0.008,0.009 0.011,0.012 0.021,0.024 0.032,0.035 0.002,0.002 0.003,0.004 0.006,0.006 0.011,0.014 0.022,0.026 0.033,0.037 l 0.006,0.006 c 0.01,0.014 0.021,0.026 0.032,0.037 0.003,0.002 0.004,0.004 0.007,0.008 0.01,0.012 0.022,0.024 0.033,0.037 0,0 0.003,0.002 0.005,0.004 0.05,0.059 0.101,0.115 0.153,0.174 l 0.006,0.006 c 0.011,0.014 0.021,0.025 0.032,0.037 10e-4,0.002 0.005,0.006 0.006,0.008 0.011,0.012 0.021,0.023 0.031,0.035 0.003,0.002 0.006,0.006 0.009,0.01 0.01,0.01 0.019,0.021 0.028,0.033 0.003,0.002 0.007,0.006 0.01,0.01 0.009,0.011 0.019,0.021 0.027,0.031 0.004,0.006 0.008,0.01 0.011,0.014 0.01,0.009 0.019,0.021 0.028,0.031 0.003,0.004 0.006,0.006 0.009,0.01 l 0.03,0.035 c 10e-4,0.002 0.005,0.006 0.008,0.01 0.01,0.011 0.02,0.021 0.03,0.033 0.002,0.004 0.005,0.006 0.007,0.01 l 0.03,0.035 c 0.003,0.002 0.006,0.006 0.008,0.008 0.025,0.029 0.049,0.058 0.075,0.087 l 0.002,0.002 c 0.01,0.014 0.022,0.028 0.034,0.041 0.004,0.004 0.007,0.008 0.011,0.012 0.008,0.01 0.016,0.02 0.025,0.031 0.005,0.004 0.009,0.01 0.013,0.016 0.008,0.01 0.016,0.02 0.025,0.029 l 0.012,0.012 0.023,0.029 c 0.006,0.006 0.009,0.01 0.014,0.018 0.008,0.008 0.016,0.017 0.023,0.027 0.005,0.006 0.009,0.01 0.014,0.016 0.008,0.01 0.016,0.017 0.022,0.027 0.005,0.004 0.01,0.012 0.015,0.016 0.008,0.01 0.015,0.019 0.023,0.029 0.004,0.004 0.008,0.01 0.013,0.016 0.008,0.008 0.015,0.017 0.023,0.027 0.005,0.004 0.009,0.01 0.013,0.016 0.008,0.009 0.017,0.019 0.025,0.029 0.004,0.006 0.007,0.01 0.012,0.014 0.008,0.011 0.018,0.023 0.027,0.033 0.002,0.004 0.006,0.008 0.009,0.01 0.024,0.029 0.049,0.06 0.072,0.09 0.013,0.013 0.024,0.029 0.036,0.042 0.004,0.006 0.007,0.01 0.012,0.014 l 0.023,0.029 c 0.005,0.006 0.01,0.012 0.015,0.02 0.007,0.008 0.014,0.016 0.02,0.025 0.006,0.006 0.011,0.012 0.016,0.018 0.007,0.01 0.014,0.018 0.02,0.025 0.005,0.006 0.011,0.014 0.017,0.022 0.006,0.008 0.012,0.013 0.019,0.021 0.006,0.008 0.01,0.014 0.016,0.022 0.006,0.008 0.012,0.013 0.018,0.021 0.007,0.008 0.013,0.016 0.019,0.026 0.005,0.006 0.01,0.011 0.016,0.017 0.006,0.008 0.013,0.016 0.019,0.024 0.005,0.007 0.01,0.013 0.016,0.021 0.006,0.008 0.013,0.016 0.019,0.024 0.006,0.007 0.01,0.013 0.016,0.019 0.006,0.008 0.013,0.016 0.019,0.024 0.005,0.007 0.01,0.013 0.016,0.019 0.006,0.01 0.013,0.018 0.02,0.027 0.003,0.004 0.006,0.008 0.009,0.01 0.026,0.035 0.052,0.067 0.078,0.1 0.005,0.008 0.011,0.013 0.016,0.019 0.007,0.01 0.014,0.02 0.022,0.03 0.004,0.004 0.007,0.009 0.011,0.013 0.008,0.01 0.016,0.022 0.023,0.032 0.004,0.003 0.008,0.007 0.011,0.013 0.008,0.01 0.016,0.018 0.022,0.028 0.005,0.005 0.008,0.009 0.013,0.015 0.007,0.01 0.015,0.02 0.022,0.03 0.003,0.003 0.008,0.009 0.012,0.015 0.008,0.01 0.016,0.02 0.023,0.029 0.004,0.004 0.007,0.008 0.009,0.012 0.009,0.012 0.017,0.022 0.026,0.033 l 0.009,0.012 c 0.007,0.01 0.016,0.022 0.024,0.031 l 0.009,0.012 c 0.008,0.01 0.017,0.022 0.025,0.033 0.002,0.004 0.005,0.006 0.007,0.01 0.01,0.012 0.019,0.023 0.027,0.035 0,0 10e-4,0 10e-4,0.002 0.056,0.07 0.109,0.141 0.164,0.213 0.009,0.014 0.019,0.027 0.029,0.039 10e-4,0.002 0.003,0.004 0.004,0.006 0.009,0.012 0.018,0.023 0.026,0.035 0.003,0.004 0.005,0.008 0.008,0.01 l 0.026,0.035 c 0.002,0.004 0.004,0.006 0.006,0.01 0.01,0.011 0.019,0.023 0.028,0.037 0.001,0.002 0.002,0.002 0.003,0.004 0.011,0.013 0.021,0.027 0.031,0.041 l 0.001,0.002 c 0.01,0.013 0.02,0.027 0.031,0.041 0,0.002 0.001,0.002 0.001,0.002 0.635,0.859 1.232,1.748 1.789,2.662 l -3.416,2.082 z M 3.815,-64.445 c -3.942,-1.666 -8.131,-2.512 -12.453,-2.512 -0.181,0 -0.363,0 -0.544,0.004 l -0.067,-4 c 0.144,-0.002 0.287,-0.004 0.431,-0.004 l 0.008,0 0.041,0 0.035,0 0.029,0 0.067,0 c 0.149,0 0.298,0 0.447,0.002 4.148,0.051 8.129,0.803 11.827,2.144 0.587,0.213 1.166,0.44 1.738,0.682 l -1.559,3.684 z m -31.61,3.853 -2.396,-3.203 c 0.154,-0.115 0.309,-0.228 0.465,-0.342 l 0,-0.002 c 0.016,-0.009 0.031,-0.021 0.045,-0.031 0.002,-0.002 0.003,-0.002 0.005,-0.004 l 0.041,-0.029 c 0.002,-0.002 0.005,-0.004 0.007,-0.004 0.013,-0.01 0.026,-0.02 0.039,-0.029 0.003,-0.002 0.005,-0.004 0.008,-0.006 0.013,-0.008 0.025,-0.018 0.038,-0.028 l 0.009,-0.005 c 0.013,-0.01 0.025,-0.018 0.038,-0.028 l 0.009,-0.006 c 0.011,-0.007 0.023,-0.017 0.035,-0.025 0.005,-0.004 0.008,-0.006 0.012,-0.008 0.011,-0.008 0.023,-0.015 0.034,-0.025 0.004,-0.002 0.009,-0.006 0.012,-0.008 0.012,-0.008 0.024,-0.018 0.036,-0.025 0.004,-0.002 0.007,-0.004 0.01,-0.008 0.032,-0.022 0.062,-0.043 0.092,-0.065 0.009,-0.006 0.017,-0.011 0.025,-0.017 0.006,-0.004 0.014,-0.01 0.021,-0.014 0.008,-0.006 0.019,-0.014 0.027,-0.019 l 0.018,-0.012 c 0.01,-0.008 0.019,-0.014 0.028,-0.02 0.006,-0.004 0.012,-0.008 0.018,-0.013 0.01,-0.006 0.02,-0.014 0.029,-0.02 0.006,-0.004 0.011,-0.008 0.016,-0.01 0.011,-0.007 0.021,-0.015 0.031,-0.021 0.005,-0.004 0.01,-0.008 0.015,-0.01 0.009,-0.008 0.021,-0.016 0.031,-0.023 0.005,-0.002 0.009,-0.006 0.014,-0.008 0.011,-0.008 0.02,-0.016 0.032,-0.024 0.005,-0.002 0.009,-0.005 0.013,-0.007 l 0.033,-0.024 c 0.004,-0.002 0.008,-0.006 0.011,-0.008 0.013,-0.007 0.024,-0.015 0.037,-0.023 0.002,-0.002 0.004,-0.004 0.006,-0.006 0.014,-0.008 0.027,-0.018 0.04,-0.027 l 0.001,0 c 2.228,-1.51 4.63,-2.776 7.175,-3.76 0.001,-0.002 0.002,-0.002 0.002,-0.002 0.017,-0.006 0.033,-0.012 0.049,-0.02 l 0.003,0 c 0.017,-0.005 0.033,-0.011 0.049,-0.019 l 0.004,0 c 0.016,-0.008 0.031,-0.014 0.048,-0.02 0,0 0.002,0 0.003,-0.002 0.017,-0.005 0.033,-0.011 0.048,-0.017 l 0.003,0 c 0.017,-0.008 0.033,-0.014 0.049,-0.02 l 10e-4,0 c 0.119,-0.045 0.237,-0.09 0.355,-0.132 0.002,0 0.004,-0.002 0.007,-0.002 0.015,-0.006 0.028,-0.01 0.043,-0.016 0.003,-0.002 0.006,-0.002 0.01,-0.004 0.014,-0.004 0.027,-0.01 0.041,-0.016 0.004,0 0.009,-0.002 0.013,-0.004 0.012,-0.003 0.026,-0.009 0.04,-0.013 0.004,-0.002 0.008,-0.004 0.013,-0.006 0.012,-0.004 0.026,-0.01 0.039,-0.014 0.004,-0.002 0.009,-0.004 0.013,-0.006 0.014,-0.003 0.028,-0.007 0.04,-0.013 0.004,-0.002 0.008,-0.002 0.013,-0.004 0.014,-0.006 0.025,-0.01 0.04,-0.014 0.004,-0.002 0.009,-0.004 0.013,-0.006 0.013,-0.004 0.027,-0.009 0.04,-0.013 0.004,-0.002 0.008,-0.002 0.011,-0.004 0.013,-0.006 0.029,-0.01 0.041,-0.016 0.004,0 0.008,-0.002 0.011,-0.004 0.015,-0.004 0.03,-0.01 0.044,-0.013 0,-0.002 0.002,-0.002 0.002,-0.002 0.083,-0.03 0.166,-0.057 0.248,-0.086 0.004,-0.002 0.009,-0.002 0.013,-0.004 0.012,-0.004 0.024,-0.008 0.036,-0.012 l 0.018,-0.006 c 0.011,-0.004 0.022,-0.008 0.034,-0.012 0.007,-0.002 0.012,-0.005 0.02,-0.007 0.011,-0.004 0.022,-0.008 0.033,-0.012 l 0.021,-0.006 c 0.011,-0.004 0.02,-0.008 0.031,-0.012 0.008,-0.002 0.016,-0.004 0.025,-0.007 0.009,-0.002 0.019,-0.006 0.029,-0.01 0.008,-0.002 0.016,-0.004 0.024,-0.008 0.01,-0.002 0.02,-0.006 0.03,-0.01 0.008,-0.002 0.017,-0.006 0.026,-0.008 0.009,-0.004 0.019,-0.005 0.027,-0.009 0.009,-0.002 0.018,-0.006 0.027,-0.008 0.009,-0.004 0.018,-0.006 0.028,-0.01 0.009,-0.004 0.018,-0.006 0.027,-0.01 0.009,-0.002 0.018,-0.006 0.027,-0.008 0.01,-0.003 0.018,-0.005 0.028,-0.009 0.009,-0.002 0.017,-0.006 0.025,-0.008 0.011,-0.004 0.021,-0.008 0.032,-0.01 0.008,-0.004 0.015,-0.006 0.023,-0.008 0.011,-0.004 0.023,-0.008 0.033,-0.011 0.008,-0.002 0.014,-0.004 0.022,-0.006 0.018,-0.006 0.036,-0.012 0.055,-0.018 l 0.002,-0.002 c 0.018,-0.006 0.035,-0.01 0.052,-0.015 0.004,-0.002 0.009,-0.004 0.014,-0.004 0.014,-0.006 0.027,-0.01 0.041,-0.014 0.006,-0.002 0.013,-0.004 0.017,-0.006 0.013,-0.004 0.025,-0.008 0.038,-0.012 0.005,-0.002 0.014,-0.004 0.021,-0.005 0.011,-0.004 0.023,-0.008 0.033,-0.012 l 0.021,-0.006 c 0.012,-0.004 0.023,-0.008 0.035,-0.01 0.007,-0.004 0.015,-0.006 0.02,-0.008 0.012,-0.004 0.023,-0.005 0.035,-0.009 0.007,-0.002 0.013,-0.004 0.021,-0.008 0.011,-0.002 0.023,-0.006 0.033,-0.01 0.008,-0.002 0.015,-0.004 0.023,-0.006 0.011,-0.004 0.022,-0.008 0.033,-0.012 0.007,-0.001 0.015,-0.003 0.021,-0.005 0.012,-0.004 0.024,-0.006 0.036,-0.01 0.006,-0.002 0.012,-0.004 0.019,-0.006 0.013,-0.004 0.025,-0.008 0.037,-0.012 0.006,-0.002 0.013,-0.004 0.018,-0.006 l 0.038,-0.011 c 0.006,-0.002 0.013,-0.004 0.018,-0.004 0.014,-0.006 0.03,-0.01 0.043,-0.014 0.004,-0.002 0.007,-0.002 0.011,-0.004 0.017,-0.004 0.034,-0.01 0.052,-0.015 l 0.003,0 c 0.039,-0.012 0.076,-0.024 0.114,-0.034 0,0 0.001,0 0.002,-0.002 0.018,-0.003 0.036,-0.009 0.054,-0.015 0.003,0 0.005,0 0.007,-0.002 0.016,-0.004 0.032,-0.008 0.048,-0.014 0.004,0 0.008,-0.002 0.012,-0.004 l 0.044,-0.011 c 0.005,-0.002 0.009,-0.002 0.015,-0.004 l 0.041,-0.012 c 0.006,-0.002 0.01,-0.004 0.015,-0.004 l 0.041,-0.012 c 0.004,-0.002 0.01,-0.004 0.015,-0.004 0.014,-0.005 0.027,-0.009 0.041,-0.013 0.005,0 0.011,-0.002 0.015,-0.004 0.013,-0.004 0.028,-0.008 0.042,-0.012 0.005,0 0.01,-0.002 0.014,-0.004 0.014,-0.004 0.029,-0.008 0.042,-0.012 0.005,0 0.01,-0.001 0.014,-0.003 0.015,-0.004 0.03,-0.008 0.044,-0.012 0.004,0 0.009,-0.002 0.012,-0.004 0.015,-0.004 0.032,-0.008 0.048,-0.012 0.002,-0.002 0.005,-0.002 0.007,-0.002 0.018,-0.006 0.037,-0.01 0.054,-0.015 l 0.001,0 c 0.096,-0.026 0.191,-0.053 0.287,-0.077 0.002,-0.001 0.005,-0.001 0.007,-0.001 0.017,-0.006 0.032,-0.01 0.049,-0.014 0.004,-0.002 0.007,-0.002 0.011,-0.002 0.015,-0.004 0.03,-0.01 0.045,-0.014 0.004,0 0.008,-0.002 0.012,-0.002 0.015,-0.004 0.03,-0.008 0.045,-0.011 0.004,-0.002 0.008,-0.002 0.012,-0.004 0.015,-0.004 0.03,-0.008 0.045,-0.012 0.004,0 0.01,-0.002 0.012,-0.002 l 0.044,-0.012 c 0.004,0 0.01,-0.002 0.013,-0.004 0.015,-0.004 0.03,-0.006 0.045,-0.009 0.003,-0.002 0.009,-0.004 0.013,-0.004 0.014,-0.004 0.03,-0.008 0.045,-0.012 0.003,0 0.007,-0.002 0.01,-0.002 0.017,-0.004 0.033,-0.008 0.049,-0.012 0.003,-0.002 0.005,-0.002 0.008,-0.004 0.019,-0.004 0.037,-0.007 0.056,-0.013 l 0.29,-0.071 0.001,0 c 0.018,-0.004 0.037,-0.007 0.056,-0.013 l 0.003,0 0.053,-0.012 c 0.003,-0.002 0.006,-0.002 0.01,-0.004 0.015,-0.004 0.032,-0.006 0.048,-0.01 0.004,-0.002 0.005,-0.002 0.008,-0.002 0.017,-0.004 0.033,-0.007 0.048,-0.011 0.004,-0.002 0.008,-0.002 0.012,-0.002 0.015,-0.004 0.031,-0.008 0.046,-0.012 0.004,0 0.008,-0.002 0.011,-0.002 0.015,-0.004 0.031,-0.008 0.046,-0.012 l 0.007,0 0.89,3.899 c -4.364,0.996 -8.403,2.869 -12.004,5.564 m -11.385,16.051 -3.816,-1.195 c 1.518,-4.848 4.034,-9.25 7.308,-12.975 l 3.003,2.641 c -2.97,3.381 -5.156,7.259 -6.495,11.529 m -3.629,20.943 c -0.182,-0.548 -0.351,-1.101 -0.507,-1.662 -10e-4,-0.002 -10e-4,-0.004 -0.002,-0.008 -0.004,-0.015 -0.008,-0.029 -0.013,-0.045 -10e-4,-0.001 -10e-4,-0.003 -0.002,-0.005 -0.004,-0.016 -0.009,-0.034 -0.013,-0.049 l -0.001,-0.002 c -0.005,-0.02 -0.009,-0.035 -0.014,-0.053 0,-0.002 -0.001,-0.004 -0.002,-0.006 -0.003,-0.013 -0.008,-0.029 -0.011,-0.043 -0.002,-0.004 -0.003,-0.009 -0.005,-0.015 -0.003,-0.012 -0.006,-0.024 -0.009,-0.034 -0.002,-0.005 -0.003,-0.011 -0.005,-0.017 -0.003,-0.012 -0.005,-0.022 -0.008,-0.033 -0.002,-0.006 -0.003,-0.012 -0.005,-0.018 -0.004,-0.014 -0.008,-0.029 -0.012,-0.045 -0.002,-0.008 -0.005,-0.015 -0.007,-0.023 -0.002,-0.008 -0.004,-0.018 -0.007,-0.026 -0.002,-0.007 -0.004,-0.017 -0.006,-0.025 -10e-4,-0.008 -0.004,-0.016 -0.005,-0.022 -0.003,-0.009 -0.005,-0.017 -0.008,-0.027 -0.002,-0.006 -0.003,-0.012 -0.005,-0.017 -0.009,-0.038 -0.019,-0.073 -0.027,-0.108 l -0.003,-0.012 c -0.004,-0.011 -0.006,-0.023 -0.009,-0.033 -0.002,-0.006 -0.003,-0.01 -0.004,-0.013 l -0.009,-0.036 c -10e-4,-0.002 -10e-4,-0.002 -10e-4,-0.004 -0.527,-2.052 -0.877,-4.173 -1.034,-6.349 l 0,-0.002 c -0.005,-0.061 -0.009,-0.121 -0.013,-0.18 l 0,-0.004 -0.003,-0.041 c 0,-0.002 0,-0.004 -0.001,-0.008 -10e-4,-0.013 -10e-4,-0.027 -0.002,-0.041 l -0.001,-0.003 c -0.002,-0.043 -0.004,-0.086 -0.007,-0.129 l 0,-0.006 c -10e-4,-0.014 -0.002,-0.028 -0.003,-0.039 0,-0.004 0,-0.01 -10e-4,-0.012 0,-0.014 -0.001,-0.025 -0.002,-0.039 l 0,-0.008 c -0.003,-0.041 -0.005,-0.08 -0.007,-0.121 -0.001,-0.004 -0.001,-0.01 -0.001,-0.014 -10e-4,-0.011 -10e-4,-0.023 -0.002,-0.035 0,-0.006 0,-0.01 -0.001,-0.015 0,-0.012 -10e-4,-0.022 -0.002,-0.034 0,-0.007 0,-0.011 -0.001,-0.019 -10e-4,-0.022 -0.002,-0.041 -0.003,-0.061 0,-0.006 0,-0.009 -10e-4,-0.017 0,-0.01 -10e-4,-0.02 -10e-4,-0.03 -10e-4,-0.007 -10e-4,-0.013 -10e-4,-0.021 -0.001,-0.01 -0.001,-0.02 -0.002,-0.029 0,-0.008 0,-0.016 -10e-4,-0.022 0,-0.01 -0.001,-0.019 -0.001,-0.031 0,-0.006 -10e-4,-0.014 -10e-4,-0.022 -10e-4,-0.021 -0.002,-0.043 -0.003,-0.062 l 0,-0.012 c 0,-0.01 0,-0.021 -10e-4,-0.031 0,-0.008 0,-0.014 -0.001,-0.022 0,-0.009 -10e-4,-0.019 -10e-4,-0.029 0,-0.006 -10e-4,-0.015 -10e-4,-0.021 0,-0.01 -0.001,-0.02 -0.001,-0.03 0,-0.007 -10e-4,-0.017 -10e-4,-0.025 -10e-4,-0.014 -10e-4,-0.027 -0.002,-0.041 0,-0.012 -10e-4,-0.023 -10e-4,-0.033 0,-0.01 -10e-4,-0.018 -10e-4,-0.028 0,-0.005 -0.001,-0.015 -0.001,-0.023 0,-0.01 0,-0.02 -10e-4,-0.027 0,-0.01 0,-0.018 -10e-4,-0.028 0,-0.007 0,-0.017 -0.001,-0.025 0,-0.012 0,-0.02 -10e-4,-0.029 0,-0.012 0,-0.024 -10e-4,-0.036 0,-0.011 0,-0.023 -0.001,-0.035 0,-0.007 0,-0.017 -10e-4,-0.025 l 0,-0.027 c -10e-4,-0.01 -10e-4,-0.018 -10e-4,-0.026 0,-0.01 -0.001,-0.017 -0.001,-0.029 0,-0.008 0,-0.016 -10e-4,-0.024 0,-0.011 0,-0.025 -10e-4,-0.039 l 0,-0.011 c -0.001,-0.02 -0.001,-0.034 -0.001,-0.051 0,-0.008 -10e-4,-0.014 -10e-4,-0.022 0,-0.009 0,-0.021 -10e-4,-0.033 l 0,-0.021 c 0,-0.01 0,-0.02 -0.001,-0.032 l 0,-0.021 c -10e-4,-0.016 -10e-4,-0.029 -10e-4,-0.043 l 0,-0.01 c -10e-4,-0.017 -10e-4,-0.033 -10e-4,-0.051 0,-0.005 0,-0.011 -0.001,-0.019 l 0,-0.035 0,-0.02 c -10e-4,-0.011 -10e-4,-0.023 -10e-4,-0.035 l 0,-0.017 c -10e-4,-0.018 -10e-4,-0.034 -10e-4,-0.051 l 0,-0.002 c 0,-0.02 0,-0.035 -0.001,-0.053 l 0,-0.019 0,-0.034 0,-0.021 c -10e-4,-0.01 -10e-4,-0.024 -10e-4,-0.035 l 0,-0.018 c 0,-0.035 0,-0.072 -10e-4,-0.105 l 0,-0.018 0,-0.037 0,-0.02 0,-0.037 0,-0.015 0,-0.053 0,-0.057 0,-0.017 0,-0.039 0,-0.024 0,-0.033 c 0,-0.008 10e-4,-0.016 10e-4,-0.025 l 0,-0.032 0,-0.025 0,-0.029 0,-0.028 c 0,-0.009 0,-0.019 10e-4,-0.031 l 0,-0.023 0,-0.034 0,-0.023 c 0.001,-0.012 0.001,-0.021 0.001,-0.035 l 0,-0.02 c 0,-0.013 0,-0.025 10e-4,-0.037 l 0,-0.019 c 0,-0.014 0,-0.028 10e-4,-0.041 l 0,-0.014 0,-0.045 c 0.001,-0.004 0.001,-0.008 0.001,-0.012 0,-0.017 0,-0.037 10e-4,-0.054 0.002,-0.137 0.006,-0.272 0.01,-0.407 0.011,-0.347 0.025,-0.691 0.046,-1.035 l 0,-0.004 0.003,-0.052 c 0,-0.002 0,-0.002 0.001,-0.004 l 0.003,-0.053 0,-0.004 c 10e-4,-0.019 0.002,-0.037 0.004,-0.055 l 0,-0.002 c 10e-4,-0.017 10e-4,-0.035 0.002,-0.05 0,-0.002 0,-0.006 10e-4,-0.008 10e-4,-0.016 0.002,-0.031 0.003,-0.049 l 0,-0.008 c 10e-4,-0.008 10e-4,-0.011 0.002,-0.019 l 0.006,-0.088 c 0.021,-0.303 0.046,-0.606 0.074,-0.904 l 3.983,0.376 c -0.096,1.01 -0.145,2.041 -0.145,3.063 0,3.455 0.547,6.853 1.625,10.098 l -3.796,1.261 z m 13.109,17.84 c -0.031,-0.023 -0.064,-0.047 -0.095,-0.07 -0.016,-0.01 -0.03,-0.022 -0.045,-0.033 -0.002,0 -0.005,-0.002 -0.007,-0.004 -0.013,-0.01 -0.027,-0.02 -0.042,-0.031 l -0.003,-0.002 c -0.014,-0.01 -0.028,-0.022 -0.042,-0.032 -0.002,0 -0.004,-0.002 -0.006,-0.004 -0.014,-0.009 -0.028,-0.019 -0.041,-0.031 -0.002,0 -0.003,-0.002 -0.005,-0.002 C -30,-5.979 -30.015,-5.988 -30.029,-6 l -0.003,-0.002 c -1.32,-0.977 -2.57,-2.041 -3.741,-3.184 l -10e-4,0 c -0.111,-0.109 -0.221,-0.216 -0.33,-0.328 -0.002,0 -0.004,-0.004 -0.004,-0.004 -0.014,-0.013 -0.027,-0.025 -0.038,-0.037 l -0.004,-0.004 -0.036,-0.035 c -0.002,-0.004 -0.004,-0.004 -0.006,-0.008 l -0.036,-0.035 c -10e-4,-0.002 -0.002,-0.004 -0.004,-0.004 -0.012,-0.013 -0.025,-0.025 -0.037,-0.037 -0.001,-0.002 -0.002,-0.004 -0.004,-0.004 -0.081,-0.084 -0.163,-0.166 -0.243,-0.25 -0.002,-0.002 -0.004,-0.002 -0.005,-0.004 -0.011,-0.011 -0.023,-0.023 -0.035,-0.037 -0.003,-0.002 -0.004,-0.004 -0.007,-0.006 l -0.032,-0.035 c -0.003,-0.002 -0.006,-0.006 -0.009,-0.007 -0.01,-0.012 -0.021,-0.024 -0.031,-0.034 -0.003,-0.002 -0.006,-0.006 -0.008,-0.008 -0.01,-0.011 -0.02,-0.021 -0.031,-0.033 -0.004,-0.004 -0.007,-0.008 -0.011,-0.011 -0.009,-0.01 -0.019,-0.02 -0.028,-0.03 -0.003,-0.004 -0.008,-0.008 -0.011,-0.009 -0.009,-0.012 -0.019,-0.022 -0.03,-0.034 -0.003,-0.002 -0.006,-0.006 -0.009,-0.009 -0.01,-0.01 -0.021,-0.022 -0.033,-0.034 -0.002,-0.004 -0.003,-0.004 -0.006,-0.007 -0.011,-0.012 -0.021,-0.024 -0.033,-0.036 -0.002,-0.002 -0.004,-0.004 -0.007,-0.005 -0.039,-0.043 -0.078,-0.084 -0.118,-0.127 -0.002,-0.002 -0.002,-0.002 -0.005,-0.004 l -0.032,-0.036 c -0.005,-0.005 -0.009,-0.009 -0.014,-0.015 -0.009,-0.01 -0.016,-0.018 -0.025,-0.027 -0.004,-0.004 -0.009,-0.01 -0.014,-0.014 -0.008,-0.01 -0.015,-0.018 -0.024,-0.027 -0.005,-0.006 -0.01,-0.01 -0.015,-0.016 -0.008,-0.01 -0.015,-0.018 -0.023,-0.026 -0.006,-0.005 -0.011,-0.011 -0.016,-0.017 -0.008,-0.008 -0.015,-0.016 -0.022,-0.024 -0.006,-0.005 -0.01,-0.011 -0.017,-0.017 -0.007,-0.008 -0.015,-0.018 -0.022,-0.025 -0.005,-0.006 -0.01,-0.012 -0.016,-0.018 -0.007,-0.008 -0.015,-0.016 -0.022,-0.024 -0.005,-0.005 -0.01,-0.011 -0.016,-0.017 -0.007,-0.008 -0.015,-0.016 -0.022,-0.024 -0.006,-0.005 -0.011,-0.013 -0.016,-0.019 -0.007,-0.008 -0.014,-0.014 -0.02,-0.022 -0.007,-0.005 -0.012,-0.013 -0.018,-0.019 -0.008,-0.008 -0.015,-0.016 -0.022,-0.024 -0.006,-0.007 -0.011,-0.011 -0.016,-0.019 -0.013,-0.014 -0.025,-0.027 -0.038,-0.039 -0.004,-0.006 -0.01,-0.014 -0.016,-0.02 l -0.021,-0.023 c -0.006,-0.008 -0.013,-0.016 -0.02,-0.022 -0.006,-0.007 -0.011,-0.013 -0.017,-0.019 -0.008,-0.008 -0.015,-0.018 -0.022,-0.025 -0.005,-0.006 -0.01,-0.01 -0.015,-0.016 -0.008,-0.01 -0.015,-0.018 -0.022,-0.025 -0.005,-0.006 -0.01,-0.012 -0.014,-0.016 -0.009,-0.01 -0.017,-0.02 -0.024,-0.027 -0.005,-0.006 -0.009,-0.01 -0.013,-0.014 -0.008,-0.01 -0.016,-0.018 -0.025,-0.027 -0.003,-0.006 -0.007,-0.01 -0.012,-0.016 -0.008,-0.008 -0.017,-0.018 -0.025,-0.027 -0.004,-0.004 -0.007,-0.008 -0.01,-0.012 -0.009,-0.01 -0.019,-0.022 -0.027,-0.031 -0.003,-0.002 -0.007,-0.006 -0.01,-0.01 -0.008,-0.01 -0.019,-0.022 -0.028,-0.033 -10e-4,-0.002 -0.004,-0.004 -0.005,-0.006 -0.01,-0.012 -0.02,-0.024 -0.031,-0.035 -10e-4,-0.002 -0.002,-0.002 -0.004,-0.004 -0.07,-0.08 -0.139,-0.16 -0.208,-0.241 l -0.001,-0.001 c -0.022,-0.026 -0.045,-0.053 -0.068,-0.079 l -0.003,-0.005 c -0.011,-0.012 -0.023,-0.026 -0.032,-0.038 -0.001,0 -0.002,-0.002 -0.003,-0.002 -0.012,-0.013 -0.022,-0.025 -0.033,-0.039 0,-0.002 -10e-4,-0.002 -10e-4,-0.002 -1.346,-1.585 -2.555,-3.289 -3.613,-5.093 l 3.451,-2.024 c 2.238,3.817 5.318,7.207 8.91,9.803 l -2.343,3.242 z m 21.062,6.801 -0.059,0 -0.017,0 -0.043,0 -0.019,0 -0.04,0 c -0.009,0 -0.015,0 -0.024,-0.002 l -0.036,0 -0.024,0 -0.036,0 -0.025,0 -0.034,0 -0.026,0 -0.033,0 c -0.009,0 -0.018,-0.002 -0.028,-0.002 l -0.031,0 -0.027,0 -0.033,0 -0.027,0 C -9.211,1.037 -9.222,1.037 -9.232,1.037 l -0.027,0 -0.033,0 -0.027,0 C -9.33,1.035 -9.341,1.035 -9.352,1.035 l -0.026,0 -0.032,0 c -0.009,0 -0.02,-0.002 -0.028,-0.002 l -0.031,0 -0.029,0 c -0.01,0 -0.02,-0.002 -0.029,-0.002 l -0.031,0 c -0.009,0 -0.019,0 -0.029,-0.002 l -0.028,0 -0.031,0 c -0.01,0 -0.02,-0.002 -0.03,-0.002 l -0.028,0 c -0.01,0 -0.021,0 -0.03,-0.002 l -0.03,0 c -0.01,0 -0.019,0 -0.03,-0.002 l -0.026,0 c -0.011,0 -0.023,0 -0.034,-0.002 l -0.022,0 c -0.013,0 -0.025,0 -0.037,-10e-4 l -0.013,0 c -0.071,-0.002 -0.14,-0.004 -0.212,-0.008 l -0.008,0 c -0.015,0 -0.028,-0.002 -0.043,-0.002 l -0.015,0 c -0.015,-0.002 -0.028,-0.002 -0.042,-0.002 -0.006,0 -0.011,-0.002 -0.017,-0.002 -0.011,0 -0.025,0 -0.037,-0.002 l -0.022,0 c -0.012,0 -0.024,-0.002 -0.035,-0.002 l -0.024,0 C -10.394,1 -10.404,1 -10.417,1 c -0.008,-0.002 -0.015,-0.002 -0.021,-0.002 -0.013,0 -0.027,-0.002 -0.039,-0.002 l -0.019,0 c -0.013,-0.002 -0.026,-0.002 -0.038,-0.002 -0.007,-0.002 -0.015,-0.002 -0.023,-0.002 -0.011,0 -0.023,-0.002 -0.035,-0.002 -0.008,0 -0.014,0 -0.022,-0.002 -0.012,0 -0.025,0 -0.036,-0.002 l -0.023,0 c -0.012,-0.002 -0.025,-0.002 -0.037,-0.002 -0.007,0 -0.013,-0.002 -0.02,-0.002 -0.012,0 -0.027,-0.002 -0.039,-0.002 -0.006,0 -0.013,0 -0.02,-0.001 -0.013,0 -0.024,0 -0.038,-0.002 l -0.019,0 c -0.013,-0.002 -0.027,-0.002 -0.041,-0.004 l -0.015,0 c -0.015,-0.002 -0.029,-0.002 -0.043,-0.002 -0.004,-0.002 -0.009,-0.002 -0.014,-0.002 -0.015,0 -0.03,-0.002 -0.044,-0.002 -0.005,-0.002 -0.01,-0.002 -0.014,-0.002 -0.014,0 -0.03,-0.002 -0.045,-0.002 -0.003,0 -0.007,-0.002 -0.011,-0.002 -0.017,0 -0.031,-0.002 -0.047,-0.002 -0.002,0 -0.005,-0.002 -0.007,-0.002 -0.209,-0.014 -0.415,-0.029 -0.623,-0.047 l -0.056,-0.006 -0.001,0 c -0.039,-0.002 -0.074,-0.006 -0.112,-0.009 l -0.003,0 c -0.018,-0.002 -0.036,-0.004 -0.055,-0.004 0,0 -10e-4,0 -0.002,-0.002 -0.018,0 -0.035,-0.002 -0.054,-0.004 l -0.003,0 c -0.038,-0.004 -0.073,-0.008 -0.111,-0.012 l -0.002,0 c -3.068,-0.297 -6.021,-0.978 -8.814,-1.996 l -10e-4,0 c -0.017,-0.006 -0.034,-0.012 -0.051,-0.02 l -10e-4,0 c -0.015,-0.005 -0.031,-0.011 -0.047,-0.015 -0.001,-0.002 -0.005,-0.002 -0.007,-0.004 -0.014,-0.006 -0.028,-0.01 -0.042,-0.016 -0.004,-0.002 -0.008,-0.002 -0.011,-0.004 -0.015,-0.006 -0.025,-0.009 -0.039,-0.013 -0.005,-0.002 -0.011,-0.004 -0.016,-0.006 -0.012,-0.006 -0.023,-0.01 -0.037,-0.014 l -0.014,-0.006 c -0.012,-0.004 -0.024,-0.009 -0.036,-0.013 -0.006,-0.002 -0.013,-0.004 -0.02,-0.008 -0.01,-0.004 -0.022,-0.008 -0.03,-0.012 -0.008,-0.002 -0.015,-0.004 -0.022,-0.008 -0.011,-0.004 -0.02,-0.008 -0.031,-0.011 -0.008,-0.002 -0.015,-0.006 -0.022,-0.008 -0.01,-0.004 -0.02,-0.008 -0.031,-0.012 -0.008,-0.002 -0.015,-0.006 -0.022,-0.008 -0.01,-0.004 -0.019,-0.008 -0.029,-0.012 -0.009,-0.003 -0.019,-0.007 -0.03,-0.011 -0.006,-0.002 -0.014,-0.006 -0.02,-0.008 -0.011,-0.004 -0.023,-0.008 -0.034,-0.014 -0.007,-0.002 -0.012,-0.004 -0.018,-0.006 -0.012,-0.003 -0.024,-0.009 -0.035,-0.013 -0.006,-0.002 -0.013,-0.006 -0.019,-0.008 -0.012,-0.004 -0.024,-0.01 -0.036,-0.014 -0.004,-0.002 -0.011,-0.004 -0.016,-0.006 -0.515,-0.201 -1.025,-0.412 -1.529,-0.636 l 1.62,-3.657 c 4.085,1.811 8.443,2.729 12.951,2.729 0.365,0 0.727,-0.006 1.088,-0.018 l 0.133,3.996 c -0.058,0.002 -0.116,0.004 -0.174,0.006 l -0.013,0 c -0.015,0.002 -0.031,0.002 -0.046,0.002 -0.023,0 -0.045,0.002 -0.068,0.002 l -0.01,0 c -0.022,0 -0.045,0.002 -0.068,0.002 l -10e-4,0 c -0.227,0.006 -0.455,0.008 -0.682,0.01 l -0.014,0 -0.057,0 -0.017,0 -0.071,0 z"
         style="fill:#373535;fill-opacity:1;fill-rule:nonzero;stroke:none"
         id="path888"
         inkscape:connector-curvature="0" />
    </g>
  </g>
</svg>
