<?xml version="1.0" encoding="UTF-8" standalone="no"?>
<!-- Created with Inkscape (http://www.inkscape.org/) -->

<svg
   xmlns:dc="http://purl.org/dc/elements/1.1/"
   xmlns:cc="http://creativecommons.org/ns#"
   xmlns:rdf="http://www.w3.org/1999/02/22-rdf-syntax-ns#"
   xmlns:svg="http://www.w3.org/2000/svg"
   xmlns="http://www.w3.org/2000/svg"
   xmlns:sodipodi="http://sodipodi.sourceforge.net/DTD/sodipodi-0.dtd"
   xmlns:inkscape="http://www.inkscape.org/namespaces/inkscape"
   width="67.514999"
   height="89.991402"
   id="svg4341"
   version="1.1"
   inkscape:version="0.48.4 r9939"
   sodipodi:docname="New document 2">
  <defs
     id="defs4343" />
  <sodipodi:namedview
     id="base"
     pagecolor="#ffffff"
     bordercolor="#666666"
     borderopacity="1.0"
     inkscape:pageopacity="0.0"
     inkscape:pageshadow="2"
     inkscape:zoom="0.35"
     inkscape:cx="-216.95679"
     inkscape:cy="119.28142"
     inkscape:document-units="px"
     inkscape:current-layer="layer1"
     showgrid="false"
     fit-margin-top="0"
     fit-margin-left="0"
     fit-margin-right="0"
     fit-margin-bottom="0"
     inkscape:window-width="472"
     inkscape:window-height="347"
     inkscape:window-x="49"
     inkscape:window-y="24"
     inkscape:window-maximized="0" />
  <metadata
     id="metadata4346">
    <rdf:RDF>
      <cc:Work
         rdf:about="">
        <dc:format>image/svg+xml</dc:format>
        <dc:type
           rdf:resource="http://purl.org/dc/dcmitype/StillImage" />
        <dc:title></dc:title>
      </cc:Work>
    </rdf:RDF>
  </metadata>
  <g
     inkscape:label="Layer 1"
     inkscape:groupmode="layer"
     id="layer1"
     transform="translate(-591.95679,-561.6522)">
    <g
       id="g1242"
       transform="matrix(1.25,0,0,-1.25,612.89679,586.17485)">
      <path
         d="m 0,0 c 0,5.402 4.396,9.797 9.799,9.797 0.154,0 0.478,0.008 0.478,0.008 0,0 0.164,-0.006 0.246,-0.006 5.403,0 9.799,-4.395 9.799,-9.797 l 0,-11.815 L 0,-11.813 0,0 z m 30.135,-11.813 0,11.815 c 0,10.83 -8.781,19.611 -19.612,19.611 -0.134,0 -0.232,0.008 -0.365,0.004 C 10.049,19.619 9.91,19.611 9.799,19.611 -1.033,19.611 -9.811,10.83 -9.811,0 l 0,-11.813 -6.941,0 0,-40.562 54.012,0 0,40.562 -7.125,0 z"
         style="fill:#373535;fill-opacity:1;fill-rule:nonzero;stroke:none"
         id="path1244"
         inkscape:connector-curvature="0" />
    </g>
  </g>
</svg>
