<?xml version="1.0" encoding="UTF-8" standalone="no"?>
<!-- Created with Inkscape (http://www.inkscape.org/) -->

<svg
   xmlns:dc="http://purl.org/dc/elements/1.1/"
   xmlns:cc="http://creativecommons.org/ns#"
   xmlns:rdf="http://www.w3.org/1999/02/22-rdf-syntax-ns#"
   xmlns:svg="http://www.w3.org/2000/svg"
   xmlns="http://www.w3.org/2000/svg"
   xmlns:sodipodi="http://sodipodi.sourceforge.net/DTD/sodipodi-0.dtd"
   xmlns:inkscape="http://www.inkscape.org/namespaces/inkscape"
   width="192.16096"
   height="80.88015"
   id="svg6070"
   version="1.1"
   inkscape:version="0.48.4 r9939"
   sodipodi:docname="New document 2">
  <defs
     id="defs6072" />
  <sodipodi:namedview
     id="base"
     pagecolor="#ffffff"
     bordercolor="#666666"
     borderopacity="1.0"
     inkscape:pageopacity="0.0"
     inkscape:pageshadow="2"
     inkscape:zoom="1.4"
     inkscape:cx="139.93498"
     inkscape:cy="45.596028"
     inkscape:document-units="px"
     inkscape:current-layer="layer1"
     showgrid="false"
     fit-margin-top="0"
     fit-margin-left="0"
     fit-margin-right="0"
     fit-margin-bottom="0"
     inkscape:window-width="729"
     inkscape:window-height="538"
     inkscape:window-x="915"
     inkscape:window-y="240"
     inkscape:window-maximized="0" />
  <metadata
     id="metadata6075">
    <rdf:RDF>
      <cc:Work
         rdf:about="">
        <dc:format>image/svg+xml</dc:format>
        <dc:type
           rdf:resource="http://purl.org/dc/dcmitype/StillImage" />
        <dc:title></dc:title>
      </cc:Work>
    </rdf:RDF>
  </metadata>
  <g
     inkscape:label="Layer 1"
     inkscape:groupmode="layer"
     id="layer1"
     transform="translate(-390.05968,-659.07653)">
    <path
       style="fill:#ffffff;fill-opacity:1"
       d="m 401.54498,739.38107 c -2.50646,-0.56156 -11.50513,-3.42154 -11.48527,-3.65027 0.008,-0.0933 0.82744,-2.77284 1.82075,-5.95455 1.80602,-5.78492 1.80602,-5.78492 4.41537,-3.7324 4.82125,3.79239 11.02084,5.97253 17.04881,5.99536 10.066,0.0381 16.20034,-4.89799 16.20034,-13.03588 0,-6.51368 -2.19239,-8.61019 -17.09507,-16.34741 -14.49041,-7.52317 -17.57736,-10.83045 -18.20476,-19.50413 -0.55793,-7.71342 1.13057,-12.47399 6.23471,-17.57813 4.66697,-4.66698 10.02451,-6.52258 18.75794,-6.49687 5.01987,0.0148 16.28551,2.12938 17.42731,3.27117 0.29036,0.29036 -0.25913,2.74393 -1.22109,5.45237 -1.749,4.92445 -1.749,4.92445 -5.82402,2.65023 -13.17843,-7.35474 -25.57502,-3.87994 -25.57502,7.16874 0,5.92215 3.36186,9.59676 13.3878,14.63325 13.7501,6.9073 18.52052,10.39197 20.65096,15.08504 5.49845,12.11232 -1.98444,27.22891 -15.47026,31.2523 -4.59081,1.36964 -16.49191,1.81656 -21.0685,0.79118 z m 134.30321,-0.71929 c -6.3777,-1.71692 -12.22754,-5.77443 -15.54467,-10.78196 -3.08939,-4.66371 -2.98847,-3.33497 -3.4988,-46.069 l -0.25974,-21.75034 6,10e-5 6,1.1e-4 0,30.25024 c 0,28.08453 0.13622,30.45124 1.90275,33.05785 3.09251,4.56313 9.00243,6.97762 18.33239,7.48967 7.39507,0.40586 8.78768,0.18163 13.65165,-2.19809 9.34888,-4.57398 9.11321,-3.58226 9.11321,-38.34958 l 0,-30.2504 5.33783,4e-4 5.33783,3.9e-4 -0.43428,30.25 c -0.27772,19.34479 -0.86041,31.57771 -1.61632,33.93294 -1.76741,5.50681 -9.68187,12.14857 -16.88483,14.16962 -6.9475,1.94937 -20.65686,2.07331 -27.43702,0.24805 z m -81.30321,-39.09969 0,-39.49978 21.25,-5.7e-4 21.25,-5.7e-4 8.2e-4,5.25 8.2e-4,5.25 -15.00082,-0.34172 -15.00082,-0.34171 0,11.64442 0,11.64443 13.78245,-0.30271 13.78246,-0.30271 -0.0325,5.5 -0.0325,5.5 -13.75,-0.3459 -13.75,-0.34589 0,18.09589 0,18.0959 -6.25,3.5e-4 -6.25,3.5e-4 0,-39.49978 z"
       id="path6859"
       inkscape:connector-curvature="0" />
  </g>
</svg>
